<svg width="1920" height="238" viewBox="0 0 1920 238" fill="none" xmlns="http://www.w3.org/2000/svg">
<path d="M0 242V15.013C4.78768 16.4537 9.15292 18.1345 10.4202 20.2155C27.1771 20.2955 45.2013 18.2945 33.6546 22.9367C36.33 25.8181 51.8196 24.9377 59.2827 24.5375C64.7745 22.3765 78.1518 18.7748 81.813 19.6552C86.8823 13.7324 100.119 27.3388 103.217 29.82C102.935 27.9791 125.043 21.416 128.141 23.0168C117.439 25.9782 128.141 29.1797 151.234 31.6608C146.165 37.3435 163.908 29.5799 175.032 30.4603C176.862 24.5375 196.013 36.143 199.956 31.8209C206.715 35.9829 226.147 42.7061 224.739 36.9433C229.668 35.5827 244.312 31.5808 249.804 35.0224C244.172 32.3011 274.728 22.2164 274.728 27.0987C274.728 31.7409 299.512 37.8238 299.512 26.0582C299.512 37.2635 324.154 23.9772 324.154 24.0573C324.154 25.0177 349.641 31.8209 349.641 30.0601C349.641 23.1768 373.439 17.094 373.439 22.4565C373.439 27.4989 398.785 23.5771 398.785 24.2173C398.785 32.3012 423.428 27.5789 423.428 22.5365C423.428 19.335 450.323 16.7738 450.323 26.3784C450.323 28.2192 472.854 22.5366 472.854 18.2145C472.854 16.2136 494.117 2.52713 494.117 7.48947C494.117 7.40942 520.308 3.72768 520.308 6.36893C520.308 1.00639 545.373 -1.07458 545.373 0.526169C545.373 -3.15556 571.424 13.8925 571.424 12.6119C571.424 11.4913 595.784 12.5318 595.784 11.8915C595.784 13.4122 622.821 11.3313 622.821 9.73051C622.821 19.8153 634.79 29.4198 634.79 25.658C634.79 17.3341 657.32 28.1392 657.32 30.5403C657.32 27.0987 681.822 31.901 681.822 29.2597C681.822 21.0158 705.901 32.1411 705.901 26.5384C705.901 22.0563 730.262 26.4584 730.262 29.0196C730.262 28.2993 753.919 36.143 753.919 33.8219C753.919 38.1439 779.265 30.2202 779.265 31.6608C779.265 32.1411 801.795 42.0658 801.795 44.9471C801.795 45.5874 827.423 33.2616 827.423 40.7051C827.423 46.1477 852.348 37.5036 852.348 40.9452C852.348 43.9866 878.257 32.6213 878.257 45.5874C878.257 44.2268 901.351 33.7418 901.351 35.8228C901.351 33.8219 927.261 30.3002 927.261 26.9386C927.261 29.5799 957.677 22.1364 957.677 27.659C957.677 17.7343 986.121 14.4527 986.121 23.577C986.121 20.2155 1012.45 24.1373 1012.45 26.4584C1012.45 22.2164 1037.38 25.0978 1037.38 25.2578C1037.38 19.255 1062.72 20.6957 1062.72 20.1354C1062.72 27.0987 1087.23 25.8181 1087.23 28.6194C1087.23 26.8586 1114.26 15.5733 1114.26 20.7757C1114.26 19.175 1139.61 20.5356 1139.61 22.9367C1139.61 32.3011 1164.11 27.0987 1164.11 27.819C1164.11 28.8595 1186.5 39.4245 1186.5 38.5441C1186.5 40.385 1212.13 33.9819 1212.13 39.1844C1212.13 39.2644 1240.99 21.5761 1240.99 29.9C1240.99 31.2607 1262.26 48.949 1262.26 44.8671C1262.26 41.9857 1287.18 44.707 1287.18 48.869C1287.18 52.8708 1313.51 49.1091 1313.51 49.9095C1313.51 55.5921 1340.41 44.707 1340.41 46.3878C1340.41 47.9085 1366.88 45.1872 1366.88 41.9857C1366.88 43.7466 1392.51 44.8671 1392.51 47.2682C1392.51 48.3887 1418.56 42.7861 1418.56 43.5064C1418.56 45.0272 1444.61 37.0234 1444.61 49.029C1444.61 47.5883 1470.24 46.4678 1470.24 39.3445C1470.24 34.6223 1496.85 48.7089 1496.85 49.5093C1496.85 60.4744 1522.34 46.4678 1522.34 41.6656C1522.34 49.1091 1548.67 38.7042 1548.67 44.8671C1548.67 43.3464 1574.16 32.6213 1574.16 38.7042C1574.16 43.0262 1598.94 42.0658 1598.94 41.1053C1598.94 44.2268 1624.15 47.4283 1624.15 47.5883C1624.15 62.6355 1648.65 51.3501 1648.65 47.3483C1648.65 42.8661 1672.03 32.7014 1672.03 34.7823C1672.03 25.498 1697.09 32.6213 1697.09 39.3445C1697.09 31.6609 1722.02 47.0281 1722.02 43.2663C1722.02 40.0648 1746.24 36.6232 1746.24 40.0648C1746.24 36.223 1772.99 39.3445 1770.74 39.8247C1769.19 42.7861 1799.46 39.6646 1797.49 38.384C1787.21 37.5036 1819.46 32.4612 1823.4 34.142C1829.32 27.1787 1854.8 28.0592 1849.87 32.7814C1853.96 36.6232 1880.29 27.4189 1876.07 25.4179C1882.26 24.8577 1896.34 23.577 1903.67 27.0987C1904.65 25.9782 1912.96 28.2192 1920 30.7004V242H0Z" fill="#C4A287"/>
</svg>
