<svg width="1920" height="158" viewBox="0 0 1920 158" fill="none" xmlns="http://www.w3.org/2000/svg">
<path d="M0 0V148.198C4.78768 147.258 9.15292 146.16 10.4202 144.801C27.1771 144.749 45.2013 146.056 33.6546 143.025C36.33 141.144 51.8196 141.718 59.2827 141.98C64.7745 143.391 78.1518 145.742 81.813 145.167C86.8823 149.034 100.119 140.151 103.217 138.531C102.935 139.733 125.043 144.018 128.141 142.973C117.439 141.039 128.141 138.949 151.234 137.329C146.165 133.619 163.908 138.688 175.032 138.113C176.862 141.98 196.013 134.403 199.956 137.224C206.715 134.507 226.147 130.118 224.739 133.88C229.668 134.768 244.312 137.381 249.804 135.134C244.172 136.911 274.728 143.495 274.728 140.307C274.728 137.277 299.512 133.305 299.512 140.987C299.512 133.671 324.154 142.345 324.154 142.293C324.154 141.666 349.641 137.224 349.641 138.374C349.641 142.868 373.439 146.839 373.439 143.338C373.439 140.046 398.785 142.607 398.785 142.189C398.785 136.911 423.428 139.994 423.428 143.286C423.428 145.376 450.323 147.048 450.323 140.778C450.323 139.576 472.854 143.286 472.854 146.108C472.854 147.414 494.117 156.35 494.117 153.11C494.117 153.162 520.308 155.566 520.308 153.842C520.308 157.343 545.373 158.702 545.373 157.656C545.373 160.06 571.424 148.93 571.424 149.766C571.424 150.497 595.784 149.818 595.784 150.236C595.784 149.243 622.821 150.602 622.821 151.647C622.821 145.063 634.79 138.792 634.79 141.248C634.79 146.683 657.32 139.628 657.32 138.06C657.32 140.307 681.822 137.172 681.822 138.897C681.822 144.279 705.901 137.015 705.901 140.673C705.901 143.6 730.262 140.726 730.262 139.053C730.262 139.524 753.919 134.403 753.919 135.918C753.919 133.096 779.265 138.269 779.265 137.329C779.265 137.015 801.795 130.536 801.795 128.654C801.795 128.236 827.423 136.284 827.423 131.424C827.423 127.871 852.348 133.514 852.348 131.267C852.348 129.281 878.257 136.702 878.257 128.236C878.257 129.125 901.351 135.97 901.351 134.612C901.351 135.918 927.261 138.217 927.261 140.412C927.261 138.688 957.677 143.547 957.677 139.942C957.677 146.421 986.121 148.564 986.121 142.607C986.121 144.801 1012.45 142.241 1012.45 140.726C1012.45 143.495 1037.38 141.614 1037.38 141.509C1037.38 145.429 1062.72 144.488 1062.72 144.854C1062.72 140.307 1087.23 141.144 1087.23 139.315C1087.23 140.464 1114.26 147.832 1114.26 144.436C1114.26 145.481 1139.61 144.592 1139.61 143.025C1139.61 136.911 1164.11 140.307 1164.11 139.837C1164.11 139.158 1186.5 132.26 1186.5 132.835C1186.5 131.633 1212.13 135.813 1212.13 132.417C1212.13 132.365 1240.99 143.913 1240.99 138.479C1240.99 137.59 1262.26 126.042 1262.26 128.707C1262.26 130.588 1287.18 128.811 1287.18 126.094C1287.18 123.481 1313.51 125.937 1313.51 125.414C1313.51 121.704 1340.41 128.811 1340.41 127.714C1340.41 126.721 1366.88 128.498 1366.88 130.588C1366.88 129.438 1392.51 128.707 1392.51 127.139C1392.51 126.407 1418.56 130.065 1418.56 129.595C1418.56 128.602 1444.61 133.828 1444.61 125.989C1444.61 126.93 1470.24 127.661 1470.24 132.312C1470.24 135.395 1496.85 126.198 1496.85 125.676C1496.85 118.517 1522.34 127.661 1522.34 130.797C1522.34 125.937 1548.67 132.73 1548.67 128.707C1548.67 129.699 1574.16 136.702 1574.16 132.73C1574.16 129.909 1598.94 130.536 1598.94 131.163C1598.94 129.125 1624.15 127.034 1624.15 126.93C1624.15 117.106 1648.65 124.474 1648.65 127.087C1648.65 130.013 1672.03 136.65 1672.03 135.291C1672.03 141.353 1697.09 136.702 1697.09 132.312C1697.09 137.329 1722.02 127.296 1722.02 129.752C1722.02 131.842 1746.24 134.089 1746.24 131.842C1746.24 134.35 1772.99 132.312 1770.74 131.999C1769.19 130.065 1799.46 132.103 1797.49 132.939C1787.21 133.514 1819.46 136.806 1823.4 135.709C1829.32 140.255 1854.8 139.68 1849.87 136.597C1853.96 134.089 1880.29 140.098 1876.07 141.405C1882.26 141.771 1896.34 142.607 1903.67 140.307C1904.65 141.039 1912.96 139.576 1920 137.956V0H0Z" fill="#B07156"/>
</svg>
